<?xml version="1.0" standalone="no"?>
<!DOCTYPE svg PUBLIC "-//W3C//DTD SVG 20010904//EN"
 "http://www.w3.org/TR/2001/REC-SVG-20010904/DTD/svg10.dtd">
<svg version="1.0" xmlns="http://www.w3.org/2000/svg"
 width="700.000000pt" height="700.000000pt" viewBox="0 0 700.000000 700.000000"
 preserveAspectRatio="xMidYMid meet">
<metadata>
Created by potrace 1.14, written by Peter Selinger 2001-2017
</metadata>
<g transform="translate(0.000000,700.000000) scale(0.100000,-0.100000)"
fill="#000000" stroke="none">
<path d="M820 5880 c-63 -21 -122 -76 -150 -141 l-20 -49 -1 -1710 0 -1710
-77 -92 c-42 -51 -84 -102 -94 -113 -9 -11 -121 -145 -248 -298 l-231 -278 6
-52 c18 -146 132 -277 280 -320 75 -22 6341 -22 6425 0 145 37 254 156 281
304 l12 67 -99 118 c-54 66 -101 121 -104 124 -3 3 -48 57 -100 120 -52 63
-97 117 -100 120 -3 3 -37 43 -75 90 -38 47 -72 87 -75 90 -3 3 -27 31 -52 63
l-47 57 0 1710 0 1709 -21 48 c-26 58 -60 96 -120 131 l-45 27 -2646 1 c-2499
2 -2650 1 -2699 -16z m2170 -277 c63 -33 183 -95 265 -138 83 -43 186 -97 230
-120 44 -23 130 -68 192 -100 l112 -59 -46 -50 c-26 -28 -76 -83 -112 -122
-36 -38 -113 -121 -171 -183 -58 -63 -121 -131 -140 -152 -19 -20 -73 -79
-120 -130 -47 -51 -98 -107 -115 -124 -16 -18 -52 -56 -79 -86 -28 -30 -79
-86 -115 -124 -142 -153 -275 -297 -292 -317 -18 -20 -17 -22 184 -175 573
-439 1044 -799 1168 -895 76 -60 139 -106 139 -103 0 3 -75 193 -166 422 -394
992 -454 1144 -454 1151 0 5 60 37 133 72 215 103 450 217 642 309 99 48 199
96 223 106 23 10 42 24 42 29 -1 14 2 5 -173 465 -81 211 -147 384 -147 385 0
1 366 1 813 1 l812 0 42 -22 c55 -29 98 -77 116 -129 20 -57 22 -2799 2 -2857
-20 -60 -63 -107 -120 -133 l-52 -24 -2315 2 -2315 3 -49 30 c-30 19 -60 49
-79 79 l-30 49 -2 1405 c-1 964 2 1414 10 1436 24 73 91 135 164 155 13 4 399
6 856 6 l832 -1 115 -61z m1407 -3907 c16 -18 44 -52 64 -77 21 -24 51 -60 68
-79 17 -19 31 -38 31 -42 0 -5 -477 -8 -1060 -8 -583 0 -1060 3 -1060 6 0 6
68 90 100 124 8 9 32 37 53 62 l37 46 870 0 870 0 27 -32z m-328 -367 c22 -35
17 -63 -12 -84 -18 -13 -102 -15 -559 -15 -525 0 -538 0 -558 20 -27 27 -26
75 2 94 20 14 90 16 565 16 l543 0 19 -31z"/>
</g>
</svg>
